<?xml version="1.0" encoding="UTF-8" standalone="no"?>
<!-- Created with Inkscape (http://www.inkscape.org/) -->

<svg
   xmlns:dc="http://purl.org/dc/elements/1.1/"
   xmlns:cc="http://creativecommons.org/ns#"
   xmlns:rdf="http://www.w3.org/1999/02/22-rdf-syntax-ns#"
   xmlns:svg="http://www.w3.org/2000/svg"
   xmlns="http://www.w3.org/2000/svg"
   xmlns:sodipodi="http://sodipodi.sourceforge.net/DTD/sodipodi-0.dtd"
   xmlns:inkscape="http://www.inkscape.org/namespaces/inkscape"
   id="svg2"
   version="1.1"
   inkscape:version="0.91 r13725"
   width="494"
   height="455"
   viewBox="0 0 494 455"
   sodipodi:docname="gitlab-logo.svg">
  <metadata
     id="metadata8">
    <rdf:RDF>
      <cc:Work
         rdf:about="">
        <dc:format>image/svg+xml</dc:format>
        <dc:type
           rdf:resource="http://purl.org/dc/dcmitype/StillImage" />
        <dc:title />
      </cc:Work>
    </rdf:RDF>
  </metadata>
  <defs
     id="defs6" />
  <sodipodi:namedview
     pagecolor="#ffffff"
     bordercolor="#666666"
     borderopacity="1"
     objecttolerance="10"
     gridtolerance="10"
     guidetolerance="10"
     inkscape:pageopacity="0"
     inkscape:pageshadow="2"
     inkscape:window-width="1366"
     inkscape:window-height="701"
     id="namedview4"
     showgrid="false"
     inkscape:zoom="0.73352616"
     inkscape:cx="-11.181466"
     inkscape:cy="112.49069"
     inkscape:window-x="-4"
     inkscape:window-y="0"
     inkscape:window-maximized="1"
     inkscape:current-layer="g4144" />
  <rect
     style="fill:#000000;fill-opacity:1"
     id="rect4154"
     width="496.45126"
     height="456.92798"
     x="-0.96398306"
     y="-0.9639833" />
  <g
     id="g4144"
     transform="matrix(0.78823218,0,0,0.78823218,53.704845,97.875556)">
    <path
       style="fill:#ffffff"
       d="M 125.5,366.64657 C -4.9780285,271.78082 0.90236877,276.49562 0.75317391,266.62662 0.68614232,262.19258 3.9637842,251.81261 58.578357,83.5 86.287998,-1.8962927 85.082401,1 92.9194,1 c 2.682992,0 4.514786,0.7069131 6.200869,2.3929967 1.826661,1.8266581 8.633131,21.6473523 28.759961,83.7500003 14.50183,44.746353 26.96439,82.821903 27.69457,84.612333 l 1.3276,3.25532 90.26267,-0.25532 90.26266,-0.25533 18.03614,-55.5017 C 365.38374,88.472366 377.7235,50.478412 382.88555,34.567293 393.1161,3.0334561 394.18438,1 400.52029,1 c 4.58978,0 7.09261,1.3496356 8.86357,4.7796444 1.26126,2.4428267 18.55147,55.3340946 67.50026,206.4853456 C 487.17099,244.03029 493,263.53798 493,266.19926 c 0,5.93104 -3.20019,11.78404 -8.73372,15.97357 C 463.59115,297.82631 247.59802,453.98831 246.6793,453.94707 246.03068,453.91796 191.5,414.63274 125.5,366.64657 Z"
       id="path4150"
       inkscape:connector-curvature="0" />
    <path
       style="opacity:0;fill:#cccccc"
       d="M 243.90749,450.6778 C 230.59832,434.36392 30.585122,177.1081 30.26457,175.89153 c -0.233097,-0.88466 10.381109,-34.85966 23.587124,-75.5 C 67.057709,59.751187 79.259796,22.127706 80.967443,16.78379 84.651814,5.2539078 87.733501,1 92.401802,1 c 6.791458,0 6.376703,-1.03579724 35.639858,89.00589 14.92437,45.92176 27.60052,84.05661 28.16922,84.74411 1.51402,1.83028 180.09868,1.83028 181.504,0 0.52787,-0.6875 7.36263,-21.05 15.18835,-45.25 C 389.60424,16.007062 393.04984,5.8583159 395.72135,3.3824394 c 3.41314,-3.1631936 8.20125,-3.15818123 11.1792,0.011703 1.59345,1.696146 10.26648,27.0851896 29.74869,87.0849836 15.12473,46.579964 27.27653,85.215104 27.00399,85.855854 C 463.38069,176.97574 416.94347,236.675 360.45941,309 303.97534,381.325 255.45235,443.51272 252.63055,447.19493 c -2.8218,3.68221 -5.35555,6.68722 -5.63055,6.6778 -0.275,-0.009 -1.66663,-1.44714 -3.09251,-3.19493 z"
       id="path4148"
       inkscape:connector-curvature="0" />
    <path
       style="opacity:0;fill:#b3b3b3"
       d="m 245.13393,448.25 c -0.78255,-1.94101 -67.49364,-206.93459 -87.70342,-269.5 -0.53552,-1.65785 4.15115,-1.75 89.0021,-1.75 73.16795,0 89.56739,0.23982 89.56739,1.30979 0,0.72039 -18.68713,58.88289 -41.52695,129.25 C 243.71845,463.92944 247.99405,451 247.0392,451 c -0.43811,0 -1.29548,-1.2375 -1.90527,-2.75 z M 31,174.15557 C 31,173.69113 43.179193,135.77863 58.064873,89.905566 87.236319,0.00818986 86.839759,1 93.612433,1 c 1.496495,0 2.449616,0.2712846 2.118046,0.6028547 -0.33157,0.3315701 0.515776,1.5690701 1.882993,2.75 C 99.648891,6.110944 104.98241,21.539339 127.04841,89.5 c 14.82199,45.65 26.94965,83.5625 26.95034,84.25 C 153.99974,174.73646 141.034,175 92.5,175 58.675,175 31,174.62 31,174.15557 Z m 308.29893,-0.49219 c 0.2821,-0.73513 12.5456,-38.42089 27.25222,-83.746109 14.70661,-45.325224 27.23534,-83.2037745 27.8416,-84.1745578 0.60627,-0.9707833 1.89745,-2.0174308 2.8693,-2.3258833 0.97184,-0.3084525 1.5089,-0.9784243 1.19345,-1.4888263 C 398.14006,1.4176016 399.02838,1 400.42955,1 c 2.63733,0 6.06343,2.3035523 7.60926,5.1161111 C 408.85166,7.5950473 463,173.54632 463,174.55856 463,174.80135 435.05186,175 400.89301,175 c -51.42125,0 -62.01874,-0.22997 -61.59408,-1.33662 z"
       id="path4146"
       inkscape:connector-curvature="0" />
  </g>
</svg>
