<?xml version="1.0" encoding="UTF-8" standalone="no"?>
<!-- Created with Inkscape (http://www.inkscape.org/) -->

<svg
   xmlns:dc="http://purl.org/dc/elements/1.1/"
   xmlns:cc="http://creativecommons.org/ns#"
   xmlns:rdf="http://www.w3.org/1999/02/22-rdf-syntax-ns#"
   xmlns:svg="http://www.w3.org/2000/svg"
   xmlns="http://www.w3.org/2000/svg"
   xmlns:sodipodi="http://sodipodi.sourceforge.net/DTD/sodipodi-0.dtd"
   xmlns:inkscape="http://www.inkscape.org/namespaces/inkscape"
   id="svg4277"
   version="1.1"
   inkscape:version="0.91 r13725"
   width="608"
   height="663"
   viewBox="0 0 608 663"
   sodipodi:docname="lattes-logo.svg">
  <metadata
     id="metadata4283">
    <rdf:RDF>
      <cc:Work
         rdf:about="">
        <dc:format>image/svg+xml</dc:format>
        <dc:type
           rdf:resource="http://purl.org/dc/dcmitype/StillImage" />
        <dc:title></dc:title>
      </cc:Work>
    </rdf:RDF>
  </metadata>
  <defs
     id="defs4281" />
  <sodipodi:namedview
     pagecolor="#ffffff"
     bordercolor="#666666"
     borderopacity="1"
     objecttolerance="10"
     gridtolerance="10"
     guidetolerance="10"
     inkscape:pageopacity="0"
     inkscape:pageshadow="2"
     inkscape:window-width="1440"
     inkscape:window-height="832"
     id="namedview4279"
     showgrid="false"
     inkscape:zoom="0.26489929"
     inkscape:cx="1109.6622"
     inkscape:cy="862.62116"
     inkscape:window-x="-4"
     inkscape:window-y="0"
     inkscape:window-maximized="1"
     inkscape:current-layer="svg4277" />
  <path
     style="fill:#000000"
     d="m 164.4685,643.39377 c -0.86564,-2.21342 -2.0228,-4.98293 -3.54632,-8.48768 -0.61258,-1.40934 -1.11382,-2.88693 -1.11382,-3.28354 0,-0.39666 -0.41573,-1.68138 -0.92382,-2.85507 -0.96403,-2.2268 -2.57842,-6.32566 -4.30773,-10.93718 l -2.03154,-5.4174 c -0.55867,-1.48984 -1.41361,-3.77528 -1.89989,-5.07887 -2.88248,-7.72699 -4.03395,-10.56729 -4.51597,-11.13958 -0.29803,-0.35379 -0.54181,-1.28324 -0.54181,-2.06541 0,-0.78213 -0.24385,-1.71154 -0.54188,-2.06537 -0.48506,-0.57591 -1.17964,-2.2863 -4.59229,-11.30888 -2.93889,-7.77015 -3.22513,-8.48625 -5.96432,-14.92096 -0.59991,-1.40928 -1.09073,-3.14349 -1.09073,-3.85378 0,-0.71024 -0.29349,-1.47278 -0.65212,-1.69443 -0.35863,-0.22164 -0.94399,-1.38242 -1.30066,-2.57935 -0.35673,-1.19702 -1.29646,-3.85245 -2.08829,-5.9009 -0.79188,-2.04846 -2.05848,-5.55283 -2.81482,-7.78754 -0.75627,-2.23471 -1.78559,-4.97726 -2.28738,-6.09459 -0.50185,-1.11738 -1.80989,-4.46937 -2.90679,-7.449 -1.09689,-2.97958 -2.91837,-7.85523 -4.04763,-10.83481 -1.12933,-2.97958 -3.17306,-8.46478 -4.5417,-12.18923 -3.17889,-8.6505 -5.63481,-15.00308 -6.84655,-17.70899 -0.52556,-1.17364 -0.95557,-2.43392 -0.95557,-2.80062 0,-0.3667 -0.45527,-1.53957 -1.01163,-2.60636 -0.55638,-1.06679 -1.01347,-2.41196 -1.01577,-2.9893 0,-0.57729 -0.26078,-1.33912 -0.57446,-1.69295 -0.31366,-0.35379 -1.7331,-3.84297 -3.15416,-7.75368 -1.421129,-3.9107 -2.840491,-7.39988 -3.154159,-7.75372 -0.313673,-0.35383 -0.572218,-1.11566 -0.574523,-1.6929 0,-0.57734 -0.459394,-1.92251 -1.015768,-2.9893 -0.55637,-1.06679 -1.011567,-2.23966 -1.011567,-2.60636 0,-0.3667 -0.430484,-1.62698 -0.956652,-2.80062 -0.92286,-2.05855 -3.0794,-7.66154 -7.337433,-19.06336 -4.140816,-11.08799 -4.85571,-12.8815 -5.384861,-13.50972 -0.298025,-0.35378 -0.543703,-1.11561 -0.546009,-1.69295 0,-0.57724 -0.430684,-1.86706 -0.951908,-2.86626 -0.521295,-0.9991 -1.152352,-2.74783 -1.402303,-3.88598 -0.250014,-1.13819 -0.735821,-2.24324 -1.079623,-2.45569 -0.34374,-0.2125 -0.626936,-0.90164 -0.629237,-1.53147 0,-0.62978 -0.430684,-1.96257 -0.951913,-2.96172 -0.521291,-0.9991 -1.152352,-2.74783 -1.402299,-3.88598 -0.250013,-1.13815 -0.73582,-2.24324 -1.079627,-2.45574 -0.343733,-0.21245 -0.626933,-0.90159 -0.629233,-1.53137 0,-0.62983 -0.430686,-1.96262 -0.951909,-2.96172 -0.521293,-0.99919 -1.152357,-2.74783 -1.402302,-3.88603 -0.250017,-1.13815 -0.735825,-2.24324 -1.079627,-2.45574 -0.343737,-0.21245 -0.625036,-0.85552 -0.625036,-1.42905 0,-0.57348 -0.482558,-2.15535 -1.072246,-3.51524 -0.589757,-1.35984 -1.503948,-3.47318 -2.031535,-4.69626 -0.527661,-1.22308 -0.959292,-2.80495 -0.959292,-3.51519 0,-0.71029 -0.293492,-1.47278 -0.652123,-1.69448 -0.358636,-0.22164 -0.943987,-1.38237 -1.30066,-2.57935 -0.356738,-1.19702 -1.284676,-3.8524 -2.062077,-5.90085 -0.777466,-2.04846 -1.260971,-4.12445 -1.074547,-4.61323 0.390258,-1.02287 4.774788,-0.58153 9.829659,0.98938 1.676017,0.52084 4.723321,1.41953 6.771787,1.99701 2.048465,0.57753 5.136673,1.4845 6.862661,2.01559 1.725994,0.53108 3.595551,0.96561 4.154631,0.96561 0.559008,0 2.498856,0.43825 4.310717,0.97395 1.811928,0.53571 7.10354,1.92718 11.759144,3.09224 4.6556,1.16501 10.75021,2.74078 13.54357,3.50166 2.79336,0.76088 7.05959,1.79156 9.4805,2.29049 2.42092,0.49888 7.44897,1.54705 11.17345,2.32927 8.83617,1.85577 19.40572,3.81443 27.42575,5.08224 3.53826,0.55938 8.26158,1.33945 10.49627,1.73359 4.09496,0.72224 7.06399,1.07774 24.37843,2.91927 5.21428,0.55462 19.29994,1.34046 31.30144,1.74636 12.00151,0.40589 22.24661,0.90135 22.76695,1.10104 0.52035,0.19963 7.76581,0.0229 16.10114,-0.39304 8.33526,-0.41581 15.61208,-0.77455 16.17076,-0.79723 1.01231,-0.041 20.44917,-2.16578 29.45728,-3.22004 9.86351,-1.15434 36.38907,-7.04691 47.72342,-10.60154 2.80305,-0.87911 6.77254,-2.09647 8.821,-2.7052 3.51219,-1.04374 4.9149,-1.53186 11.51204,-4.00579 1.48979,-0.55866 4.00382,-1.50094 5.58673,-2.0939 5.15949,-1.93284 9.45199,-3.84773 18.7917,-8.38293 3.91071,-1.89898 8.32932,-4.15031 9.81911,-5.00294 1.48979,-0.85262 3.77526,-2.13891 5.07883,-2.85844 15.52838,-8.57124 34.38829,-24.55974 44.74234,-37.93027 2.95283,-3.81319 5.36888,-7.14357 5.36888,-7.40083 0,-0.25727 0.90506,-1.61048 2.01122,-3.00715 1.10617,-1.39667 2.33823,-3.2689 2.73785,-4.16052 0.86825,-1.93747 2.15171,-4.17994 3.11502,-5.44268 0.62067,-0.81372 4.13715,-8.84172 6.77977,-15.47804 3.96459,-9.95644 5.69168,-36.62713 3.3985,-52.48136 -1.01226,-6.99813 -3.75308,-19.13052 -5.66035,-25.05561 -1.0575,-3.28532 -2.79059,-8.06003 -7.00015,-19.28541 -1.11734,-2.97959 -2.91611,-7.78229 -3.99739,-10.67266 -2.23441,-5.97299 -3.15786,-10.0707 -3.72101,-16.5107 -0.33052,-3.78071 -0.18888,-4.73453 0.9035,-6.08354 1.27917,-1.57973 1.32645,-1.58508 3.75732,-0.42586 1.35407,0.64569 2.85818,1.17399 3.34248,1.17399 0.84207,0 13.97142,13.01834 13.97142,13.85332 0,0.22169 1.37128,1.77436 3.0473,3.45038 1.67601,1.67602 3.0473,3.31863 3.0473,3.65023 0,0.33162 0.24676,0.70451 0.54831,0.82866 0.30163,0.12415 3.42511,3.4252 6.94106,7.33568 3.5161,3.91048 6.69751,7.4486 7.06997,7.86248 3.25739,3.61979 4.40168,5.08651 4.40168,5.642 0,0.35717 0.38908,0.89308 0.86477,1.19093 1.85477,1.16157 18.09622,24.14359 18.09622,25.60662 0,0.23072 0.74092,1.39087 1.64651,2.57814 0.90555,1.18725 1.97405,2.91911 2.37443,3.84858 0.40042,0.92948 1.78574,3.51834 3.07861,5.75302 4.89185,8.45564 13.21581,26.61066 13.21581,28.8244 0,0.67657 0.26428,1.39345 0.58729,1.59306 0.32292,0.19962 1.27977,2.57926 2.12634,5.2881 0.84643,2.70885 2.1322,6.74595 2.85716,8.97135 2.29154,7.03443 5.349,21.69321 4.81492,23.08498 -0.15582,0.40601 0.0715,1.62876 0.50503,2.71722 2.19612,5.51343 3.12334,20.67863 2.55053,41.71674 -0.38232,14.04247 -0.71977,18.50851 -1.51442,20.04527 -0.56238,1.08751 -1.32297,4.9138 -1.6901,8.50283 -0.38175,3.73131 -1.10942,7.15633 -1.69933,7.99852 -0.56744,0.81013 -1.52671,3.1756 -2.13173,5.25659 -0.60506,2.08094 -1.5339,4.78838 -2.06422,6.01641 -0.53032,1.22809 -1.28472,3.66591 -1.67657,5.41746 -0.39184,1.7515 -1.4906,5.01298 -2.44178,7.24764 -0.95113,2.23471 -2.48479,5.89148 -3.4081,8.12614 -1.66523,4.03046 -14.39012,29.91937 -15.96908,32.48924 -0.45249,0.73649 -2.12596,3.39906 -3.71873,5.91691 -1.59278,2.5178 -3.09091,5.11487 -3.32908,5.77133 -0.23823,0.65642 -1.29668,2.30393 -2.35213,3.66105 -1.0555,1.35718 -1.92609,2.72845 -1.93471,3.04737 -0.009,0.31882 -0.99905,1.71777 -2.20084,3.10872 -1.20183,1.39095 -3.25167,4.08414 -4.55526,5.98483 -1.30358,1.90074 -2.67485,3.81039 -3.04731,4.24373 -0.37241,0.43329 -1.87021,2.31107 -3.32837,4.17279 -1.45811,1.86173 -3.00392,3.68973 -3.43502,4.06219 -0.43115,0.37241 -1.0665,1.17582 -1.41195,1.78527 -0.64637,1.14053 -12.68231,14.20833 -17.63065,19.14215 -6.85957,6.83946 -18.8094,17.43247 -27.70495,24.55922 -4.10452,3.2884 -8.85525,7.14542 -10.55721,8.57119 -1.70196,1.42572 -3.73121,2.94938 -4.50939,3.38586 -1.34898,0.75664 -4.67282,3.0065 -15.50048,10.49194 -9.29794,6.42793 -29.36039,18.21193 -41.20005,24.19933 -6.05228,3.06076 -7.3742,3.74975 -9.64979,5.02942 -2.83859,1.59631 -15.04339,7.45972 -15.52751,7.45972 -0.29321,0 -2.51896,0.94804 -4.94598,2.10671 -2.42707,1.15873 -5.32702,2.50661 -6.44437,2.99545 -1.11734,0.48878 -4.01228,1.78393 -6.4332,2.87821 -2.42091,1.09418 -5.77294,2.52214 -7.44896,3.17317 -1.67602,0.65108 -3.7964,1.47745 -4.71201,1.83657 -0.91555,0.35913 -3.50576,1.258 -5.75602,1.99749 -2.2502,0.73954 -4.90014,1.7837 -5.88875,2.3204 -0.98861,0.53666 -2.27336,0.97581 -2.85505,0.97581 -0.58163,0 -2.05829,0.42638 -3.28141,0.94747 -2.29103,0.97599 -6.53335,2.61664 -10.68852,4.13354 -1.30357,0.47587 -4.19851,1.39614 -6.4332,2.04507 -2.23469,0.64889 -5.12963,1.55648 -6.4332,2.01688 -2.53102,0.89387 -4.2002,1.40152 -12.18922,3.70735 -2.79336,0.80636 -5.68829,1.70648 -6.43319,2.00053 -0.7449,0.29396 -3.03038,1.01968 -5.07884,1.61264 -3.42348,0.99091 -5.66894,1.59397 -14.22075,3.81911 -1.67602,0.436 -4.47453,1.05735 -6.21887,1.38065 -1.74435,0.32326 -3.7813,0.91407 -4.52647,1.31288 -0.74516,0.39885 -2.06052,0.72367 -2.92304,0.72181 -0.86245,0 -2.93943,0.4351 -4.61545,0.971 -5.77349,1.84605 -13.11519,3.48485 -26.07138,5.81949 -3.17793,0.57267 -8.5913,1.63232 -17.26806,3.38024 -2.04846,0.41267 -5.4005,1.00539 -7.44897,1.31712 -2.04846,0.31172 -5.09576,0.88482 -6.77178,1.27347 -4.4874,1.0406 -11.03856,2.13992 -12.75243,2.13992 -1.00547,0 -1.73662,-0.61168 -2.22561,-1.86225 z m 92.17642,-264.33348 c -14.40252,-2.9249 -31.88402,-6.17643 -38.2606,-7.11646 -3.72449,-0.54899 -7.24114,-1.25366 -7.81478,-1.56586 -0.57364,-0.3122 -3.31621,-0.79222 -6.09461,-1.06665 -2.7784,-0.27443 -5.63717,-0.80756 -6.35282,-1.18473 -0.71564,-0.37713 -4.37241,-1.08813 -8.12614,-1.57992 -3.75374,-0.49183 -10.32935,-1.51208 -14.61251,-2.26724 -4.28315,-0.75516 -10.37776,-1.8301 -13.54357,-2.38867 -3.16581,-0.55857 -9.26042,-1.61964 -13.54358,-2.35785 -4.28315,-0.7382 -10.22539,-1.78655 -13.20498,-2.32964 -2.97959,-0.54314 -9.98839,-1.79132 -15.57511,-2.77385 -5.58673,-0.98247 -12.44317,-2.23933 -15.23653,-2.79299 -2.79336,-0.55366 -7.059587,-1.28034 -9.480503,-1.61488 -2.42091,-0.33454 -8.667883,-1.41224 -13.882162,-2.39495 -5.214276,-0.98272 -11.15652,-2.00459 -13.204985,-2.27092 -5.529707,-0.71886 -7.50646,-1.94999 -8.842329,-5.50724 -1.107729,-2.94961 -2.268213,-7.91275 -3.325084,-14.22075 -0.280825,-1.67602 -0.839701,-4.41859 -1.242015,-6.09461 -0.402378,-1.67602 -1.176801,-5.18041 -1.721048,-7.78755 -0.544252,-2.60714 -1.323345,-6.26391 -1.731411,-8.12615 -0.938573,-4.2837 -1.99145,-11.23802 -2.819301,-18.62242 -0.35491,-3.16581 -0.916899,-6.67021 -1.24892,-7.78755 -1.841386,-6.19794 -3.715817,-42.52834 -3.22581,-62.52242 0.719367,-29.34919 3.2017,-48.51266 8.918513,-68.85026 0.523459,-1.86224 1.083624,-4.14772 1.244792,-5.07884 0.161099,-0.93112 1.105021,-3.82606 2.097491,-6.4332 0.992474,-2.60714 2.266924,-6.11154 2.832167,-7.78756 1.083351,-3.21244 10.949709,-23.28198 13.149866,-26.748552 0.70914,-1.11735 1.800414,-2.940982 2.425178,-4.052525 C 77.097531,90.62345 83.339701,81.53621 88.624063,74.772948 96.613554,64.547494 106.46542,54.892191 116.4769,47.475821 c 4.65121,-3.445528 8.76148,-6.504555 9.13393,-6.797835 2.70865,-2.132918 16.62209,-9.894075 21.33113,-11.89884 1.30357,-0.554969 4.08183,-1.770962 6.17397,-2.702201 2.09208,-0.931244 5.13938,-2.050332 6.77179,-2.486875 1.63234,-0.436544 3.27267,-1.00577 3.64512,-1.264957 0.98875,-0.688076 6.79129,-2.542905 11.85062,-3.788131 2.42092,-0.595845 5.92532,-1.520939 7.78756,-2.055763 1.86224,-0.534814 7.04266,-1.594554 11.51204,-2.354955 4.46938,-0.76041 10.56399,-1.872015 13.54358,-2.470237 2.97958,-0.598212 7.85527,-1.176141 10.83486,-1.284287 19.10239,-0.6933161 39.57148,-0.27788 50.7884,1.030801 2.97958,0.347628 8.46473,0.974487 12.18921,1.393024 5.87514,0.660215 16.21796,2.320401 29.45728,4.72834 2.04846,0.37257 6.16232,1.274489 9.14191,2.00427 2.97959,0.72978 8.00764,1.94654 11.17346,2.703925 6.20742,1.485051 14.00127,3.591536 17.26805,4.667128 1.11735,0.367892 5.6883,1.793279 10.15768,3.167526 11.86783,3.649131 31.36848,10.460524 35.89048,12.536193 1.48979,0.683841 5.45129,2.298412 8.80332,3.58793 5.68674,2.187674 10.13105,4.172489 23.70126,10.58479 2.97958,1.407943 9.23943,4.293387 13.91074,6.412109 7.68883,3.487324 8.69904,4.153736 10.66555,7.035507 2.55839,3.749132 2.74413,5.682248 0.64858,6.750448 -2.78487,1.419605 -11.49232,2.996577 -14.65785,2.654647 -1.71497,-0.185234 -9.5174,-1.1384 -17.33881,-2.118151 -43.35265,-5.430563 -48.78105,-5.876838 -72.00882,-5.919886 -17.47812,-0.03239 -27.30283,0.672814 -40.06426,2.875765 -8.83461,1.525069 -21.65875,4.990838 -27.42574,7.411882 -12.86519,5.400924 -19.68342,9.014662 -25.73279,13.638648 -3.84198,2.93667 -10.30111,9.518204 -12.52781,12.765244 -0.55867,0.81466 -1.93958,2.74133 -3.0687,4.2815 -1.12906,1.54017 -2.42613,3.56213 -2.88228,4.49326 -0.45614,0.93112 -1.57606,2.91186 -2.48863,4.40165 -0.91263,1.4898 -1.67256,3.20468 -1.68875,3.81087 -0.0162,0.60618 -0.48642,1.4815 -1.04509,1.94515 -0.55867,0.46366 -1.02613,1.33898 -1.03879,1.94516 -0.0129,0.60618 -0.6117,2.32107 -1.33133,3.81086 -0.71964,1.4898 -1.31874,3.26202 -1.3314,3.9383 -0.0129,0.67627 -0.34929,1.83927 -0.74808,2.58445 -0.3988,0.74518 -0.9851,2.78208 -1.3029,4.52644 -0.31773,1.74437 -1.05903,5.7305 -1.6473,8.85808 -0.58827,3.12756 -1.25096,9.22217 -1.47273,13.54357 -0.22171,4.32139 -0.4894,8.00943 -0.59483,8.19566 -0.40171,0.70937 0.91744,28.38427 1.63004,34.19752 2.4224,19.76148 6.34685,40.79734 10.35947,55.52866 0.40583,1.4898 0.96207,3.92764 1.23606,5.41743 0.27405,1.4898 0.81627,3.62291 1.20504,4.74025 0.3887,1.11735 1.17971,3.70756 1.75769,5.75603 2.50433,8.87528 3.83364,13.22671 7.55094,24.71702 2.1688,6.70407 4.82754,14.47469 5.90819,17.26806 3.91118,10.11016 6.0044,15.2732 6.95435,17.15364 0.53266,1.05439 0.96849,2.32482 0.96849,2.82313 0,0.49831 0.43285,1.7687 0.96187,2.82315 0.52901,1.0544 1.4713,3.2884 2.0939,4.9644 0.62267,1.67604 1.52271,3.96148 2.00019,5.07886 0.47748,1.11733 1.39437,3.40282 2.03749,5.07881 0.64319,1.67605 1.59578,4.04804 2.11679,5.27112 0.52109,1.22308 0.94744,2.938 0.94744,3.81086 0,0.87287 0.41911,1.9349 0.9314,2.36004 0.51222,0.4251 1.31305,2.13639 1.77962,3.80281 1.2089,4.31775 0.39175,5.08606 -5.33339,5.01437 -2.46839,-0.031 -7.38294,-0.64412 -10.92119,-1.3627 z M 363.95743,303.5923 c -4.10811,-0.5032 -8.83143,-1.25565 -10.49628,-1.6721 -1.66484,-0.41646 -4.32642,-1.03413 -5.91467,-1.3726 -1.58826,-0.33848 -3.47278,-0.92853 -4.18788,-1.31124 -0.71504,-0.3827 -2.0058,-0.69696 -2.86833,-0.69835 -0.86245,-10e-4 -2.5659,-0.61085 -3.78536,-1.35436 -1.21946,-0.7435 -2.69605,-1.35183 -3.28141,-1.35183 -0.58528,0 -1.873,-0.438 -2.86162,-0.97333 -0.98861,-0.53533 -5.14947,-2.57996 -9.2464,-4.54363 -7.22102,-3.46104 -18.32459,-10.4375 -21.21933,-13.33222 -0.78106,-0.78106 -2.57321,-2.15568 -3.98256,-3.05473 -2.70214,-1.72375 -13.56666,-12.53902 -18.65085,-18.56638 -7.52718,-8.92347 -16.18565,-23.91051 -18.43402,-31.90762 -0.48357,-1.72014 -1.39478,-4.9559 -2.02483,-7.19059 -2.65244,-9.40816 -3.66503,-17.89498 -3.11049,-26.07138 0.29044,-4.28316 0.876,-8.6454 1.30121,-9.69388 0.42519,-1.04848 0.77313,-2.60958 0.77313,-3.46911 0,-1.43691 1.08836,-4.39189 3.88151,-10.53827 1.75816,-3.86896 3.77629,-7.76355 4.21077,-8.12614 0.22313,-0.18622 1.6171,-1.87553 3.09775,-3.75401 4.05881,-5.14934 11.4066,-11.45065 18.29175,-15.68657 14.64988,-9.013 34.54215,-12.34358 55.50415,-9.29309 7.48451,1.08918 9.65095,1.60274 19.63818,4.65522 9.42511,2.88066 25.66616,10.17583 28.78132,12.928 0.55934,0.49417 1.77827,1.23753 2.70871,1.65189 7.74449,3.44894 24.89486,18.12229 36.03403,30.82969 2.72512,3.10871 8.65853,11.66619 8.65853,12.48769 0,0.3033 0.38755,0.87311 0.86124,1.26625 0.47374,0.39313 2.25941,3.55393 3.96819,7.02399 2.92218,5.93407 3.95602,8.37498 5.97075,14.09677 3.3393,9.48338 4.24436,24.54429 2.08971,34.77427 -1.80399,8.56531 -3.40152,14.01646 -4.49455,15.33696 -0.46244,0.55867 -1.05073,1.85666 -1.30724,2.88441 -0.25643,1.02776 -0.72919,2.03107 -1.05036,2.2296 -0.32125,0.19852 -1.08675,1.42032 -1.70114,2.7151 -1.2031,2.53528 -15.17013,17.22651 -16.37743,17.22651 -0.40137,0 -2.65588,1.29077 -5.01006,2.86839 -4.51555,3.02607 -5.41404,3.42178 -15.11508,6.65691 -13.84424,4.61681 -26.9295,6.01053 -40.65104,4.32978 z"
     id="path4287"
     inkscape:connector-curvature="0"
     sodipodi:nodetypes="ccscssscscscscccccscsssscscscsscssccccccccccccsccsccccsssscsssssssssscsssssssscssccsscsscscsssscssscscssscccccscsccssscsscccssscccssscsscscscscccsccccccccsccscsccscssssssssssssssscccscscsscscscsssscccssssssssssssssssssssssssscsccscscscsccsccccssssscsccscscssssccssssssscscssscsssssssscssssccsssss" />
</svg>
